<!-- Generator: Adobe Illustrator 25.0.1, SVG Export Plug-In  -->
<svg version="1.1" xmlns="http://www.w3.org/2000/svg" xmlns:xlink="http://www.w3.org/1999/xlink" x="0px" y="0px"
	 width="977.23px" height="752.46px" viewBox="0 0 977.23 752.46"
	 style="overflow:visible;enable-background:new 0 0 977.23 752.46;" xml:space="preserve">
<style type="text/css">
	.st0{fill-rule:evenodd;clip-rule:evenodd;}
</style>
                <defs>
                    <linearGradient
                        spreadMethod="pad"
                        id="gradient"
                        x1="80%"
                        y1="116%"
                        x2="0%"
                        y2="0%"
                    >
                        <stop
                            offset="0"
                            style="stop-color:#ba682d;stop-opacity:1;"
                        />
                        <stop
                            offset="40%"
                            style="stop-color:#840000;stop-opacity:1;"
                        />
                        <stop
                            offset="100%"
                            style="stop-color:#003c96;stop-opacity:1;"
                        />
                    </linearGradient>
                </defs>
<path fill="url(#gradient)" class="st0" d="M170.2,333.75c4.07,4.94,24.6,53.49,45.36,49.84c37.89-3.57-21.44,90.52,46.56,107.04
	c18.19,3.82,23.48,15.35,25.68,17.52c21.15-1.13,25.24,4.15,32.88,21.6c18.88,20,42.51-15.86,83.52,12.97
	c15.54,66.41,59.71,54.65,97.68,54.24c54.39,39.32,227.15,40.54,266.64-75.85c-50.54,63.5-125.86,86.25-140.67,51.41
	c-50.24,57.03-98.75,16.45-118.72-4.27c-15.82,7.37-101.3,39.69-78.05-67.06c-24.39,31.66-58.66-5.97-88.22,9.71
	c0,0.01-5.47,5.48-11.07-1.95c-3.63-15.88-23.93-25.53-35.83-22.4c-1.11,0.3-3.55-10.6-20.67-14.78
	c-34.3-9.84-25.35-18.99-24.2-60.11C260.58,346.9,206.3,379.52,170.2,333.75z"/>
<path fill="url(#gradient)" class="st0" d="M89.74,171.31c0,0-14.62,38.84-18.35,48.68c-26.33,37.75-90.52,99.98-5.1,102.88
	c19.49-6.26,79.45-26.99,82.31,17.27c-32.23-28.16-78.91,19.89-111.46,5.04C-64.68,293.76,73.37,210.1,89.74,171.31z"/>
<path fill="url(#gradient)" class="st0" d="M141.4,197.11c7.03-12.47,24.42-7.98,18.24,7.44l0,0c0.04,17.38,42.39-4.95,3.03,14.24
	C151.19,224.04,128.86,219.55,141.4,197.11z"/>
<path fill="url(#gradient)" class="st0" d="M977,127.49c4.61-30.24-61.64-49.85-84.88-45.58c0,0,2.98,1.48,24.24,15.6c-3.08,0.1-42,23.29-3.6,57.12
	c-2.63,1.91-8.44,2.52-33.6-4.32c-19.26-39.29-36.07-30.78-69.84-35.76c-21.97-23.05-37.51-28.16-85.92-30.48
	c-85.3-57.27-121.09-42.53-163.92-15.6c-49.47-4.79-64.5,9.95-83.52,32.64c-80.62,2.04-105.36,83.52-105.36,83.52
	c30.97-29.86,68.51-52.59,99.57-63.35c-0.29,0.24-0.79,4.75-0.69,22.55c52.11-66.74,65.92-54.95,99.84-48.24
	c42.77-46.76,115.33-11.12,147.83,14.61c48.4,3.04,62.43,11.5,81.13,31.71c53-13.72,56.18,3.02,73.92,28.56
	c59.05,41.03,63.03,79.93,61.2,106.56c19.56,18.51,25.07,27.21,21.36,30.48c-12.93,5.11-13.62,8.9-14.4,17.04
	c17.67,34.69,19.22,41.65,0.72,77.04c15.44,43.14,2.64,54.96-24.24,65.76c-39.05,98.94-119.19,80.29-151.68,84
	c94.52,49.2,211.59-63.17,197.29-148.32c17.23-24.02,15.94-45.68-1.69-80.64c17.41-21.31,7.67-29.58-9.36-49.92
	c8.79-32.14-4.73-61.16-33.36-94.08C956.83,167.79,976.38,146.76,977,127.49z M924.16,124.06c-10.43-4.1,14.3-25.66,17.7-3.14
	C941.6,127.81,931.32,128.82,924.16,124.06z"/>
<path fill="url(#gradient)" class="st0" d="M377.51,552.48c-12.8,4.29-20.11,13.37-12.61,38.72c-1.04,69.09-88.51,144.46-88.51,144.46
	s99.21-49.03,111.88-132.82C391.3,587.35,405.24,551.41,377.51,552.48z"/>
<path fill="url(#gradient)" class="st0" d="M297.89,529.52c-11.44,3.01-18.36,10.52-13.28,33.12c-4.94,60.35-85.8,121.16-85.8,121.16
	s89.59-37.09,105.55-109.62C307.91,560.82,322.19,530.21,297.89,529.52z"/>
<path fill="url(#gradient)" class="st0" d="M832.32,579.22c-5.94,10.99-6.11,22.11,15.54,30.92c31.27,32.43,33.32,90.34,39.82,129.24
	C897.61,692.61,897.99,557.66,832.32,579.22L832.32,579.22z"/>
<path fill="url(#gradient)" class="st0" d="M752.32,584.58c-7.97,9.62-10.31,20.5,9.21,33.36c24.35,37.9,15.07,95.11,13.86,134.52
	C794.26,708.52,820.94,576.23,752.32,584.58L752.32,584.58z"/>
<path fill="url(#gradient)" class="st0" d="M272.11,92.39c-6.92,4.91-14.06,11.82-20.59,20.19c-50.48-27.16-80.96-15.49-110.87,14.05
	c-2.82-103.05,134.04-115.88,86.2-59.11c-50.55-28.97-41.22,55.7,24.23,21.11C339.96-42.25,66.67-29.15,133.13,134.43
	c-8.46,9.13-17,19.54-26.05,30.76c10.1-8.51,19.55-15.67,28.48-21.65c1.66,5.91,2.84,9.57,2.84,9.57
	c13.1-42.24,79.95-37.3,105.58-29.75c-14.97,23.95-23.84,55.81-12.93,86.62c6.95-33.93,22.14-59.44,39.88-77.44
	c7.82,2.98,15.95,6.23,24.55,9.61c-6.8-5.34-13.3-10.14-19.53-14.45c46.69-42.71,106.7-36.39,83.33,3.39
	c-18.54,21.27-81.06-16.11-46.17,23.22C442.41,182.07,384.06,4.65,272.11,92.39z"/>
</svg>
